<svg width="46" height="400" viewBox="0 0 46 400" fill="none" xmlns="http://www.w3.org/2000/svg">
<g opacity="0.6">
<path d="M14.4923 355.271C16.1347 355.271 17.6323 355.485 18.9849 355.915C20.3375 356.296 21.666 356.964 22.9703 357.919C23.9847 356.964 25.2649 356.296 26.8107 355.915C28.3083 355.485 29.8541 355.271 31.4482 355.271C33.2839 355.271 35.0472 355.629 36.7379 356.344C38.3804 357.012 39.8538 357.966 41.1581 359.207C42.4141 360.4 43.4285 361.831 44.2015 363.501C44.9261 365.171 45.2884 366.984 45.2884 368.94V400H1.77031e-05L1.63284e-05 368.94C1.62418e-05 366.984 0.386476 365.171 1.1594 363.501C1.93232 361.831 2.99508 360.4 4.3477 359.207C5.652 357.966 7.19784 357.012 8.98522 356.344C10.7243 355.629 12.56 355.271 14.4923 355.271ZM34.1293 368.94C34.1293 368.272 33.8636 367.676 33.3322 367.151C32.8009 366.578 32.1729 366.292 31.4482 366.292C30.4821 366.292 29.7092 366.578 29.1295 367.151C28.5498 367.676 28.26 368.272 28.26 368.94V388.335H34.1293V368.94ZM17.1009 368.94C17.1009 368.272 16.8352 367.676 16.3038 367.151C15.7724 366.578 15.1686 366.292 14.4923 366.292C13.816 366.292 13.2121 366.578 12.6808 367.151C12.1494 367.676 11.8837 368.272 11.8837 368.94V388.335H17.1009V368.94Z" fill="#ED182D"/>
<path d="M11.7388 321.118H34.2018L34.2018 304.371H45.2884L45.2884 349.1H34.2018V332.354H11.7388V349.1H1.54504e-05L1.34707e-05 304.371H11.7388V321.118Z" fill="#ED182D"/>
<path d="M20.3617 252.029H45.2884L45.2884 283.089C45.2884 284.902 44.9502 286.619 44.2739 288.242C43.5493 289.864 42.5831 291.319 41.3755 292.607C40.1195 293.848 38.6702 294.85 37.0278 295.613C35.337 296.329 33.5013 296.686 31.5207 296.686H14.4198C12.4875 296.686 10.6518 296.352 8.91276 295.684C7.17369 294.969 5.652 294.015 4.3477 292.822C3.04339 291.581 2.00478 290.15 1.23185 288.528C0.458933 286.858 0.0724731 285.045 0.072473 283.089L0.0724719 258.47H11.8112L11.8112 283.804C11.8112 284.091 11.9803 284.472 12.3184 284.949C12.6566 285.427 13.1638 285.665 13.8401 285.665H32.1729C32.511 285.665 32.8492 285.427 33.1873 284.949C33.4772 284.472 33.7912 284.091 34.1293 283.804V263.694H20.3617V252.029Z" fill="#ED182D"/>
<path d="M34.0569 201.519H45.2884L45.2884 231.863C45.2884 233.867 44.9261 235.751 44.2014 237.517C43.4285 239.234 42.4141 240.737 41.1581 242.025C39.9021 243.314 38.4528 244.339 36.8104 245.103C35.1196 245.819 33.3564 246.176 31.5207 246.176H0.0724713L0.0724695 204.095H11.8112L11.8112 234.583H17.1734V206.743H28.1875L28.1875 234.583H31.5207C32.2453 234.583 32.8009 234.439 33.1873 234.153C33.5255 233.819 33.8153 233.294 34.0569 232.579L34.0569 201.519Z" fill="#ED182D"/>
<path d="M6.7042e-06 151.481H11.0866V168.299H45.2884V180.036H11.0866L11.0866 196.21L8.68381e-06 196.21L6.7042e-06 151.481Z" fill="#ED182D"/>
<path d="M45.2884 145.675H0.0724669L0.0724656 116.547C0.0724655 114.305 0.507234 112.229 1.37677 110.321C2.198 108.413 3.33323 106.767 4.78245 105.383C6.18337 103.999 7.84999 102.926 9.78229 102.162C11.6663 101.399 13.671 101.017 15.7966 101.017C18.7433 101.017 21.4486 101.805 23.9123 103.379C26.3276 104.953 28.2116 107.172 29.5642 110.035L37.3176 102.377H45.2884V110.035L30.7961 124.348V134.081H45.2884V145.675ZM19.8544 134.081L19.8544 115.331C19.8544 114.281 19.4438 113.47 18.6226 112.897C17.8013 112.325 16.8594 112.039 15.7966 112.039C14.4923 112.039 13.502 112.325 12.8257 112.897C12.1011 113.47 11.5938 114.281 11.304 115.331V134.081H19.8544Z" fill="#ED182D"/>
<path d="M0.0724633 64.9817C0.0724632 63.0255 0.458923 61.2363 1.23184 59.6142C2.00477 57.9443 3.01923 56.5129 4.27522 55.3201C5.53122 54.0796 7.0046 53.1254 8.69537 52.4575C10.3861 51.7418 12.1252 51.384 13.9126 51.384H30.941C32.9216 51.384 34.7815 51.7656 36.5205 52.529C38.2596 53.2924 39.7813 54.2943 41.0856 55.5348C42.3899 56.7753 43.4285 58.2305 44.2014 59.9004C44.9744 61.5226 45.3608 63.2164 45.3608 64.9817L45.3608 82.444C45.3608 84.257 44.9744 85.9985 44.2014 87.6684C43.4285 89.2906 42.3899 90.7219 41.0856 91.9624C39.7813 93.2029 38.2596 94.2049 36.5205 94.9682C34.7815 95.7316 32.9216 96.1133 30.941 96.1133L13.9126 96.1133C12.1252 96.1133 10.3861 95.7316 8.69537 94.9682C7.0046 94.2049 5.53122 93.1791 4.27522 91.8909C3.01923 90.6027 2.00477 89.0997 1.23184 87.3821C0.458924 85.6645 0.0724641 83.8276 0.0724641 81.8715L0.0724633 64.9817ZM33.5496 64.9817C33.5496 64.3137 33.4047 63.8127 33.1148 63.4788C32.7767 63.0971 32.2695 62.7393 31.5932 62.4053H13.9126C13.2363 62.7393 12.7049 63.0732 12.3184 63.4072C11.932 63.6935 11.5697 64.0275 11.2315 64.4091L11.2315 82.444C11.5697 83.112 11.932 83.6129 12.3184 83.9469C12.7049 84.2809 13.2363 84.4479 13.9126 84.4479H31.5932C32.8975 84.4479 33.5496 83.7799 33.5496 82.444L33.5496 64.9817Z" fill="#ED182D"/>
<path d="M4.87778e-07 11.0213L0 1.95518e-06L45.2884 0V11.0213H38.7668L15.7241 33.0639H45.2884V44.7293L1.97962e-06 44.7294L1.46333e-06 33.0639L22.3181 11.0213L4.87778e-07 11.0213Z" fill="#ED182D"/>
</g>
</svg>
