<svg width="155" height="133" viewBox="0 0 155 133" fill="none" xmlns="http://www.w3.org/2000/svg">
<path d="M0.031906 124.043C0.031906 121.555 0.0611618 119.068 0.00265014 116.581C-0.0266057 115.644 0.207441 115.352 1.17288 115.352C4.77135 115.41 8.36982 115.352 11.9683 115.381C15.9178 115.41 18.5508 119.595 16.854 123.194C16.5322 123.897 16.5322 124.336 16.854 125.038C18.5216 128.549 15.9763 132.617 12.1146 132.676C8.42833 132.734 4.71284 132.676 1.0266 132.705C0.178185 132.705 -0.0266057 132.442 0.00265014 131.622C0.0611618 129.105 0.031906 126.56 0.031906 124.043ZM8.54535 126.208C7.49214 126.208 6.40968 126.238 5.35647 126.208C4.5373 126.179 4.47879 126.618 4.56656 127.203C4.62507 127.701 4.24474 128.491 5.23944 128.491C7.46289 128.491 9.68633 128.52 11.939 128.462C12.6412 128.462 13.1678 127.993 13.08 127.233C13.0215 126.501 12.4949 126.179 11.7635 126.208C10.681 126.238 9.59856 126.208 8.54535 126.208ZM8.60386 121.877C9.5693 121.877 10.5347 121.877 11.5294 121.877C12.2608 121.877 13.0507 121.819 13.0507 120.941C13.0507 120.122 12.3194 119.917 11.5587 119.917C9.56931 119.917 7.57991 119.946 5.59051 119.917C4.74209 119.887 4.5373 120.18 4.50805 120.999C4.47879 121.877 4.88837 121.936 5.56126 121.907C6.58521 121.848 7.60916 121.877 8.60386 121.877Z" fill="#ED182D"/>
<path d="M67.7299 115.409C70.1289 115.409 72.4986 115.439 74.8976 115.38C75.6582 115.38 75.863 115.585 75.8923 116.346C76.0093 119.857 76.0385 119.857 72.4693 119.857C70.0411 119.857 67.5836 119.887 65.1554 119.857C64.3947 119.857 64.0144 119.975 64.0437 120.882C64.0437 121.701 64.2777 121.964 65.1261 121.935C67.9932 121.877 70.8895 121.935 73.7566 121.906C74.6343 121.877 74.9268 122.14 74.9268 123.047C74.9268 126.178 74.9853 126.178 71.855 126.178C69.7193 126.178 67.5544 126.149 65.4187 126.208C64.9213 126.208 64.0729 125.769 64.1022 126.939C64.1022 127.993 64.5118 128.461 65.565 128.461C67.9932 128.432 70.4507 128.461 72.8789 128.461C73.23 128.461 73.5518 128.461 73.9029 128.461C77.0332 128.461 77.004 128.461 76.9455 131.621C76.9455 132.412 76.7699 132.733 75.8923 132.704C72.1768 132.646 68.4905 132.733 64.7751 132.675C61.9372 132.616 59.6845 130.334 59.6553 127.525C59.5968 123.808 59.6553 120.121 59.626 116.404C59.626 115.497 59.9771 115.38 60.7378 115.409C63.049 115.439 65.3894 115.409 67.7299 115.409Z" fill="#ED182D"/>
<path d="M112.199 126.968C112.93 127.554 113.603 128.11 114.276 128.666C114.861 129.163 115.446 129.719 115.241 130.626C115.095 131.299 115.651 132.441 114.92 132.587C113.837 132.792 112.55 133.172 111.526 132.002C110.473 130.802 109.302 129.69 108.132 128.607C107.518 128.051 107.137 127.202 106.084 127.173C102.983 127.027 102.983 126.998 102.983 130.158C102.983 132.733 102.983 132.733 100.409 132.733C98.5363 132.733 98.5363 132.733 98.5363 130.773C98.5363 126.09 98.5655 121.408 98.507 116.755C98.4778 115.614 98.8288 115.409 99.882 115.409C103.042 115.468 106.201 115.438 109.39 115.438C112.462 115.438 114.744 116.96 115.563 119.594C116.412 122.257 115.475 124.627 112.842 126.5C112.725 126.529 112.638 126.617 112.199 126.968ZM106.874 119.74C105.85 119.74 104.826 119.769 103.832 119.74C103.217 119.711 102.925 119.916 102.983 120.56C103.012 120.999 103.042 121.437 102.983 121.876C102.895 122.725 103.129 123.076 104.066 123.047C105.997 122.959 107.927 123.018 109.888 123.018C110.999 123.018 111.497 122.432 111.497 121.408C111.526 120.384 110.999 119.769 109.917 119.74C108.922 119.74 107.898 119.74 106.874 119.74Z" fill="#ED182D"/>
<path d="M150.699 123.457C150.699 121.116 150.729 118.775 150.67 116.433C150.641 115.643 150.846 115.351 151.694 115.351C154.971 115.292 154.971 115.263 154.971 118.453C154.971 122.784 154.941 127.115 155 131.475C155 132.411 154.795 132.85 153.801 132.704C153.479 132.646 153.128 132.646 152.777 132.704C151.285 132.909 150.29 132.616 150.699 130.773C150.787 130.421 150.641 130.129 150.348 129.865C147.54 127.32 144.76 124.744 142.186 122.374C142.186 124.54 142.186 127.32 142.186 130.129C142.186 132.675 142.186 132.675 139.582 132.675C137.651 132.675 137.651 132.675 137.651 130.743C137.651 126.032 137.681 121.291 137.622 116.58C137.622 115.614 137.885 115.438 138.851 115.351C141.162 115.117 142.917 115.731 144.439 117.575C146.253 119.77 148.359 121.73 150.319 123.779C150.436 123.662 150.553 123.574 150.699 123.457Z" fill="#ED182D"/>
<path d="M126.329 132.704C125.305 132.704 124.281 132.704 123.257 132.704C120.273 132.646 117.933 130.568 117.757 127.583C117.611 125.213 117.64 122.813 117.757 120.443C117.904 117.663 120.244 115.497 123.053 115.409C125.335 115.351 127.617 115.351 129.928 115.409C132.795 115.468 134.989 117.692 135.077 120.706C135.165 122.901 135.165 125.096 135.077 127.29C134.931 130.509 132.59 132.675 129.401 132.704C128.377 132.704 127.353 132.704 126.329 132.704ZM122.263 124.042C122.263 125.066 122.292 126.091 122.263 127.115C122.234 127.934 122.614 128.256 123.404 128.227C125.452 128.227 127.5 128.227 129.518 128.227C130.337 128.227 130.747 127.817 130.747 126.969C130.718 125.037 130.747 123.076 130.747 121.145C130.747 120.296 130.396 119.74 129.46 119.74C127.47 119.74 125.481 119.74 123.492 119.74C122.614 119.74 122.263 120.179 122.292 120.999C122.292 121.994 122.263 123.018 122.263 124.042Z" fill="#ED182D"/>
<path d="M28.4393 132.704C25.8941 132.704 23.3781 132.675 20.8328 132.733C20.0429 132.733 19.7504 132.558 19.7211 131.709C19.6626 128.549 19.6041 128.549 22.793 128.549C26.2159 128.549 26.2159 128.549 26.2159 125.154C26.2159 123.896 26.1574 122.608 26.2451 121.35C26.3037 120.238 26.0404 119.74 24.8116 119.857C23.4658 119.975 22.0908 119.857 20.7158 119.887C19.9551 119.916 19.7504 119.623 19.7211 118.892C19.5748 115.409 19.5748 115.409 23.027 115.409C27.2106 115.409 31.3942 115.439 35.607 115.38C36.6895 115.38 37.1283 115.556 37.0991 116.785C37.0113 119.887 37.0991 119.887 33.9394 119.887C30.575 119.887 30.575 119.887 30.575 123.194C30.575 124.452 30.6628 125.739 30.5457 126.998C30.458 128.168 30.7798 128.666 32.0378 128.578C33.3836 128.461 34.7586 128.578 36.1336 128.549C36.8357 128.52 37.0113 128.783 37.0698 129.485C37.2453 132.763 37.2746 132.763 33.9687 132.763C32.1256 132.704 30.2824 132.704 28.4393 132.704Z" fill="#ED182D"/>
<path d="M50.6152 132.675C48.8013 132.675 47.0167 132.704 45.2029 132.675C42.3358 132.616 40.1124 130.451 40.0831 127.583C40.0538 125.301 40.0538 122.989 40.0831 120.706C40.1416 117.604 42.3651 115.409 45.4954 115.409C48.2747 115.38 51.054 115.439 53.8333 115.38C54.5647 115.38 54.828 115.526 54.8573 116.317C54.9743 119.857 55.0036 119.857 51.4636 119.857C49.562 119.857 47.6604 119.887 45.7587 119.857C44.7055 119.828 44.2667 120.238 44.2959 121.321C44.3544 123.164 44.3252 125.037 44.2959 126.881C44.2667 127.993 44.7933 128.49 45.8758 128.49C47.8651 128.49 49.8838 128.461 51.8732 128.49C52.6338 128.52 52.9264 128.256 52.8971 127.495C52.8386 126.413 52.9264 125.359 52.8679 124.276C52.8386 123.515 52.9849 123.164 53.8918 123.135C57.3733 123.047 57.3733 122.989 57.3733 126.471C57.3733 128.081 57.2855 129.69 57.4025 131.3C57.4903 132.529 57.0222 132.763 55.9398 132.704C54.1259 132.616 52.3705 132.675 50.6152 132.675Z" fill="#ED182D"/>
<path d="M87.7117 115.38C90.1984 115.38 92.6852 115.438 95.1719 115.351C96.1081 115.321 96.2836 115.643 96.2836 116.521C96.2836 119.652 96.3129 119.652 93.2118 119.652C89.8181 119.652 89.8181 119.652 89.8181 123.018C89.8181 125.886 89.7888 128.753 89.8473 131.651C89.8473 132.499 89.6133 132.704 88.7941 132.704C85.2542 132.763 85.2542 132.792 85.2542 129.28C85.2542 126.559 85.1957 123.837 85.2834 121.086C85.3127 120.004 85.0786 119.506 83.8792 119.623C82.5626 119.74 81.2461 119.623 79.9296 119.652C79.2567 119.682 79.0227 119.477 78.9934 118.745C78.8179 115.351 78.7886 115.351 82.2116 115.351C84.0254 115.38 85.8685 115.38 87.7117 115.38Z" fill="#ED182D"/>
<path d="M114.364 24.2889C114.13 36.3748 111.526 47.8169 105.002 58.1763C104.27 59.3175 103.802 59.698 102.369 59.0834C98.3315 57.3861 94.4989 58.0299 91.2223 60.927C87.9749 63.7949 86.7754 67.5114 87.8871 71.7546C88.1797 72.9252 87.9164 73.1885 86.8924 73.569C80.6317 75.8223 74.4295 75.793 68.1687 73.5397C67.4373 73.2763 67.174 73.0715 67.4373 72.2228C68.6953 67.7747 67.6421 63.8827 64.1314 60.8685C60.6207 57.8544 56.5834 57.4447 52.3998 59.3468C51.3759 59.815 51.0248 59.5517 50.5275 58.7615C45.2907 50.6848 42.3943 41.7886 41.3119 32.2779C40.6975 27.0397 40.756 21.7722 41.2534 16.534C41.3996 15.1587 41.9262 14.193 42.9502 13.315C51.6392 5.64796 61.7324 1.17062 73.3177 0.263443C87.9749 -0.877841 100.847 3.48245 112.023 12.9639C113.164 13.9296 113.779 14.9831 113.866 16.534C114.042 19.1093 114.305 21.6845 114.364 24.2889ZM90.842 56.04C91.5149 55.6303 92.217 55.3084 92.8314 54.8402C104.563 46.2367 109.624 34.0337 111.497 20.1335C111.643 18.9629 111.204 18.0265 110.297 17.1778C102.193 9.68635 92.7436 5.23827 81.6849 4.36036C67.6129 3.21907 55.4424 7.63789 45.0274 17.1193C43.6523 18.3484 43.4183 19.6653 43.6816 21.2748C44.4715 26.2203 45.6125 31.1074 47.5726 35.7603C50.9663 43.7785 55.7642 50.6555 63.1952 55.4547C63.6926 55.7766 64.1314 56.3034 64.9506 56.0693C61.9957 52.1187 60.2696 47.7291 59.4505 42.9591C59.2164 41.5545 59.2457 40.4132 60.5037 39.3305C70.2751 30.6684 84.8738 30.6099 94.7037 39.1841C95.9032 40.2376 96.108 41.3204 95.874 42.7836C95.0841 47.5243 93.3287 51.8553 90.6372 55.8059C90.5494 55.8937 90.4031 56.04 90.4324 56.0693C90.5494 56.3326 90.6957 56.1278 90.842 56.04ZM78.1157 39.1256C73.9906 39.1549 70.3629 40.5595 67.7884 42.9299C67.2325 43.4274 66.9692 43.9541 67.0863 44.715C67.5251 47.378 68.3735 49.8946 69.9533 52.1187C73.7273 57.3861 79.8125 58.0299 84.0546 53.6111C86.5121 51.0652 87.7116 47.934 88.2382 44.4809C88.3552 43.7493 87.9749 43.3103 87.4776 42.8714C84.6397 40.4132 81.3631 39.1549 78.1157 39.1256Z" fill="#ED182D"/>
<path d="M122.702 0.0290527C124.574 1.55076 126.037 2.86763 127.412 4.30155C127.734 4.65271 127.821 5.03314 127.88 5.4721C128.845 15.3632 129.811 25.2543 130.776 35.1455C130.835 35.9063 131.069 36.3453 131.8 36.6964C133.321 37.4573 134.053 38.7742 134.024 40.5007C133.994 41.5835 133.994 42.637 134.024 43.7197C134.024 44.6269 133.702 45.6511 135.165 45.9145C135.662 46.0023 135.808 46.7046 135.808 47.2606C135.808 50.5382 135.808 53.7864 135.808 57.064C135.808 57.8248 135.545 58.4686 134.784 58.6149C134.082 58.7613 133.994 59.1417 134.024 59.7562C134.053 61.1316 134.053 62.4777 134.024 63.8531C133.994 66.3991 132.385 68.0378 129.84 68.1256C127.295 68.2134 127.324 68.2134 126.476 70.5253C124.369 76.1439 121.356 81.2065 117.523 85.8302C116.85 86.6495 116.499 86.474 115.885 85.8594C110.56 80.5042 105.236 75.1782 99.8821 69.8522C99.1799 69.1499 99.1507 68.7694 99.9113 68.0671C107.342 60.956 111.818 52.1769 114.451 42.3736C116.616 34.2968 117.172 26.0737 116.441 17.4117C118.928 20.0161 120.771 22.7669 122.76 25.9274C122.702 17.119 122.702 8.74963 122.702 0.0290527Z" fill="#ED182D"/>
<path d="M32.2133 0C32.2133 8.95469 32.2133 17.4704 32.2133 26.4836C34.232 23.2061 36.1043 20.3675 38.7081 17.5582C38.5911 18.9629 38.4448 19.9286 38.4155 20.9235C37.9767 35.8773 41.0486 49.8068 49.9716 62.1561C51.4344 64.1753 53.0434 66.0774 54.8573 67.7454C55.618 68.4478 55.4424 68.7989 54.8281 69.4135C49.5035 74.6809 44.2082 80.0069 38.9129 85.3329C38.2693 85.9767 37.9182 86.0938 37.2746 85.2744C33.5591 80.6507 30.575 75.6173 28.6441 69.9987C28.176 68.6526 27.6201 68.0088 26.0403 68.0966C22.8222 68.2722 21.3009 66.6334 21.2716 63.4437C21.2716 62.5072 21.2716 61.6 21.2716 60.6636C21.2716 59.7564 21.5642 58.7322 20.1306 58.4688C19.5163 58.3518 19.4578 57.5617 19.4578 56.9764C19.4578 53.8159 19.4578 50.6262 19.4578 47.4657C19.4578 46.8219 19.5455 46.0025 20.2184 45.8855C21.4472 45.6806 21.2716 44.8905 21.2716 44.0711C21.2716 42.842 21.3009 41.6422 21.2716 40.4131C21.2424 38.8622 21.886 37.6624 23.2025 36.9015C23.8169 36.5503 24.0802 36.1114 24.1387 35.4091C24.7531 29.0588 25.3674 22.7086 26.0111 16.3584C26.3621 12.876 26.7717 9.39364 27.0935 5.91126C27.1813 4.97483 27.5324 4.24323 28.2053 3.65796C29.4633 2.51668 30.692 1.40466 32.2133 0Z" fill="#ED182D"/>
<path d="M115.066 88.464C114.832 88.6981 114.656 88.9323 114.451 89.1078C109.419 94.1412 103.598 97.9162 97.0442 100.638C96.1665 100.989 95.9617 100.608 95.7569 99.9354C94.3527 95.5751 92.9191 91.2441 91.5734 86.8838C91.2808 85.8888 90.9005 85.5084 89.7888 85.5084C81.5971 85.5669 73.4055 85.5377 65.2139 85.5084C64.3654 85.5084 63.9559 85.684 63.6926 86.5912C62.3175 91.01 60.8547 95.3703 59.4212 99.7598C59.1579 100.579 58.8946 100.843 57.9584 100.462C51.2881 97.7113 45.4662 93.7608 40.3757 88.6689C39.7905 88.0836 39.8491 87.7617 40.4049 87.2057C45.8758 81.7919 51.3173 76.3489 56.7297 70.8473C57.4611 70.1157 57.8706 70.3791 58.485 70.8473C65.4772 76.1733 73.2885 78.4851 82.036 77.2268C87.302 76.4659 91.9829 74.3004 96.225 71.14C96.8979 70.6425 97.249 70.5547 97.8926 71.2277C103.334 76.7293 108.834 82.2016 114.305 87.6739C114.568 87.908 114.773 88.1714 115.066 88.464Z" fill="#ED182D"/>
<path d="M77.6184 88.1132C81.1291 88.1132 84.6398 88.1424 88.1505 88.0839C88.9696 88.0839 89.3207 88.318 89.584 89.1081C90.7835 92.9709 92.0415 96.7752 93.358 100.609C93.7091 101.604 93.4165 101.926 92.4511 102.189C82.5626 104.998 72.6741 105.028 62.7857 102.16C61.8495 101.896 61.4106 101.633 61.8202 100.492C63.1075 96.8337 64.307 93.1172 65.4187 89.4008C65.7697 88.2887 66.2964 88.0254 67.3788 88.0546C70.8018 88.1717 74.1954 88.1132 77.6184 88.1132Z" fill="#ED182D"/>
<path d="M90.8421 56.04C90.6958 56.1278 90.5495 56.3034 90.4032 56.0693C90.374 56.04 90.5495 55.8937 90.608 55.8059C90.6958 55.8937 90.7543 55.9815 90.8421 56.04Z" fill="#ED182D"/>
</svg>
