<svg width="673" height="171" viewBox="0 0 673 171" fill="none" xmlns="http://www.w3.org/2000/svg">
<g clip-path="url(#clip0)">
<path d="M28.5828 66.0406H11.8028V82.8001H28.5828V66.0406Z" fill="#EE182D"/>
<path d="M28.5828 99.2754H11.8028V116.035H28.5828V99.2754Z" fill="#EE182D"/>
<path d="M62.0006 66.0406H45.2206V82.8001H62.0006V66.0406Z" fill="#EE182D"/>
<path d="M333.894 24H305.169V52.6899H333.894V24Z" fill="#EE182D"/>
<path d="M363.33 52.6898H333.894V82.0898H363.33V52.6898Z" fill="#EE182D"/>
<path d="M83.0469 144.867H56.8815V171H83.0469V144.867Z" fill="#EE182D"/>
<path d="M54.6062 116.461H28.4407V142.594H54.6062V116.461Z" fill="#EE182D"/>
<path d="M26.1655 144.867H0V171H26.1655V144.867Z" fill="#EE182D"/>
<path d="M333.894 80.8117V81.6638H305.311V57.3769C283.127 43.6001 257.104 35.5044 229.09 35.5044C161.543 35.5044 104.804 82.0899 89.1617 144.725H118.74C133.529 97.8551 177.47 63.9102 229.09 63.9102C289.953 63.9102 340.009 111.206 344.559 170.858H373.142C371.009 136.203 356.504 104.673 333.894 80.8117Z" fill="#EE182D"/>
</g>
<g clip-path="url(#clip1)">
<path d="M672.58 18.7651H639.279V52.0664H672.58V18.7651Z" fill="#EE182D"/>
<path d="M605.977 18.7651H572.676V52.0664H605.977V18.7651Z" fill="#EE182D"/>
<path d="M486.119 0H468.279V17.84H486.119V0Z" fill="#EE182D"/>
<path d="M537.609 52.9307L537.609 18.9686L503.647 18.9686L503.647 52.9307L537.609 52.9307Z" fill="#EE182D"/>
<path d="M612.717 171H639.279C633.068 114.573 591.706 68.585 537.525 55.5023V82.857C577.037 95.0147 606.903 129.241 612.717 171Z" fill="#EE182D"/>
<path d="M574.13 171C568.315 138.227 539.639 113.251 505.148 113.251C485.59 113.251 467.883 121.312 455.196 134.263L433.524 106.512C444.228 96.7326 456.914 89.068 470.79 84.1785V56.5595C418.591 70.8316 379.079 116.026 373 171H399.562C402.469 150.253 411.191 131.356 424.141 116.158L446.607 144.835C441.453 152.631 437.885 161.485 436.167 170.868H574.13V171Z" fill="#EE182D"/>
</g>
<defs>
<clipPath id="clip0">
<rect width="373" height="147" fill="white" transform="translate(0 24)"/>
</clipPath>
<clipPath id="clip1">
<rect width="299.58" height="171" fill="white" transform="translate(373)"/>
</clipPath>
</defs>
</svg>
