<svg width="360" height="148" viewBox="0 0 360 148" fill="none" xmlns="http://www.w3.org/2000/svg">
<g clip-path="url(#clip0)">
<path d="M15.1714 0H0V15.1755H15.1714V0Z" fill="#ED182D"/>
<path d="M15.1714 30.0939H0V45.2694H15.1714V30.0939Z" fill="#ED182D"/>
<path d="M45.5142 0H30.3428V15.1755H45.5142V0Z" fill="#ED182D"/>
<path d="M127.342 45.3305L127.342 74.5241L156.528 74.5241L156.528 45.3305L127.342 45.3305Z" fill="#ED182D"/>
<path d="M58.5004 143.267C58.5004 114.46 40.5004 89.8958 15.1719 80.1217V109.187C25.8433 116.774 32.7862 129.249 32.7862 143.396C32.7862 144.939 32.6576 146.483 32.529 147.897H58.3719C58.3719 146.225 58.5004 144.811 58.5004 143.267Z" fill="#ED182D"/>
<path d="M250.328 143.267C250.328 120.118 269.228 101.213 292.371 101.213C315.514 101.213 334.285 120.118 334.285 143.267C334.285 144.811 334.157 146.354 334.028 147.769H359.871C360 146.225 360 144.811 360 143.267C360 105.972 329.657 75.4919 292.242 75.4919C254.957 75.4919 224.485 105.843 224.485 143.267C224.485 144.811 224.614 146.354 224.614 147.769H250.457C250.457 146.354 250.328 144.811 250.328 143.267Z" fill="#ED182D"/>
<path d="M312.429 144.296C312.429 132.979 303.3 123.848 291.986 123.848C280.672 123.848 271.543 132.979 271.543 144.296C271.543 145.454 271.672 146.611 271.929 147.769H312.172C312.3 146.611 312.429 145.454 312.429 144.296Z" fill="#ED182D"/>
<path d="M99.5141 143.267C99.5141 125.134 111.086 109.573 127.286 103.785V77.0352C96.8141 83.5941 73.7998 110.73 73.7998 143.267C73.7998 144.811 73.9284 146.354 73.9284 147.769H99.7712C99.6427 146.354 99.5141 144.811 99.5141 143.267Z" fill="#ED182D"/>
<path d="M209.186 143.267C209.186 111.116 186.686 84.1085 156.472 77.2924V104.042C172.286 110.087 183.472 125.391 183.472 143.267C183.472 144.811 183.343 146.354 183.215 147.769H209.057C209.186 146.225 209.186 144.811 209.186 143.267Z" fill="#ED182D"/>
</g>
<defs>
<clipPath id="clip0">
<rect width="360" height="147.769" fill="white"/>
</clipPath>
</defs>
</svg>
