<svg width="48" height="49" viewBox="0 0 48 49" fill="none" xmlns="http://www.w3.org/2000/svg">
<path d="M24 48.9943C17.6348 48.9943 11.5303 46.4133 7.02944 41.8192C2.52857 37.2251 2.44877e-06 30.9942 2.7351e-06 24.4971C3.02143e-06 18.0001 2.52857 11.7691 7.02944 7.17504C11.5303 2.58094 17.6348 -1.31649e-06 24 -1.04053e-06C30.3652 -7.64563e-07 36.4697 2.58094 40.9706 7.17504C45.4714 11.7691 48 18.0001 48 24.4971C48 30.9942 45.4714 37.2251 40.9706 41.8192C36.4697 46.4133 30.3652 48.9943 24 48.9943ZM34.5 26.0282C34.8978 26.0282 35.2794 25.8669 35.5607 25.5798C35.842 25.2926 36 24.9032 36 24.4971C36 24.0911 35.842 23.7016 35.5607 23.4145C35.2794 23.1274 34.8978 22.9661 34.5 22.9661L17.121 22.9661L23.562 16.3947C23.8437 16.1072 24.0019 15.7173 24.0019 15.3107C24.0019 14.9041 23.8437 14.5142 23.562 14.2267C23.2803 13.9392 22.8983 13.7777 22.5 13.7777C22.1017 13.7777 21.7197 13.9392 21.438 14.2267L12.438 23.4131C12.2983 23.5554 12.1875 23.7243 12.1119 23.9103C12.0362 24.0963 11.9973 24.2957 11.9973 24.4971C11.9973 24.6985 12.0362 24.8979 12.1119 25.0839C12.1875 25.2699 12.2983 25.4389 12.438 25.5811L21.438 34.7676C21.7197 35.055 22.1017 35.2166 22.5 35.2166C22.8983 35.2166 23.2803 35.055 23.562 34.7676C23.8437 34.4801 24.0019 34.0901 24.0019 33.6836C24.0019 33.277 23.8437 32.887 23.562 32.5996L17.121 26.0282L34.5 26.0282Z" fill="#ED182D"/>
</svg>
