<svg width="28" height="28" viewBox="0 0 28 28" fill="none" xmlns="http://www.w3.org/2000/svg">
<rect width="28" height="28" rx="4" fill="#ED182D"/>
<path d="M23.5586 9.18113C23.4439 8.75956 23.2201 8.37522 22.9096 8.06639C22.599 7.75756 22.2125 7.53502 21.7886 7.42092C20.2365 7 13.99 7 13.99 7C13.99 7 7.7432 7.01274 6.19115 7.43366C5.76719 7.54777 5.3807 7.77032 5.07015 8.07916C4.75959 8.38801 4.53582 8.77236 4.42112 9.19395C3.95165 11.9362 3.76954 16.1148 4.43401 18.7474C4.54873 19.169 4.7725 19.5534 5.08305 19.8622C5.3936 20.171 5.78009 20.3936 6.20404 20.5076C7.75609 20.9286 14.0028 20.9286 14.0028 20.9286C14.0028 20.9286 20.2494 20.9286 21.8013 20.5076C22.2253 20.3936 22.6118 20.171 22.9224 19.8622C23.2329 19.5534 23.4567 19.169 23.5714 18.7474C24.0666 16.0013 24.2192 11.8252 23.5586 9.18113Z" fill="#1D1C20"/>
<path d="M12.0361 16.9999L17.2147 13.9642L12.0362 10.9285L12.0361 16.9999Z" fill="#ED182D"/>
</svg>
